<svg xmlns="http://www.w3.org/2000/svg" xmlns:xlink="http://www.w3.org/1999/xlink" width="500" zoomAndPan="magnify" viewBox="0 0 375 374.999991" height="500" preserveAspectRatio="xMidYMid meet" version="1.0"><defs><clipPath id="a4bb5af9f1"><path d="M 124 92.375 L 250.746094 92.375 L 250.746094 219.125 L 124 219.125 Z M 124 92.375 " clip-rule="nonzero"/></clipPath></defs><g clip-path="url(#a4bb5af9f1)"><path fill="#609966" d="M 208.585938 190.640625 C 202.851562 193.582031 196.351562 195.242188 189.46875 195.242188 C 166.292969 195.242188 147.503906 176.453125 147.503906 153.277344 C 147.503906 130.101562 166.292969 111.316406 189.46875 111.316406 C 212.640625 111.316406 231.429688 130.101562 231.429688 153.277344 C 231.429688 160.089844 229.804688 166.523438 226.921875 172.210938 L 233.589844 197.085938 C 244.324219 185.96875 250.929688 170.839844 250.929688 154.167969 C 250.929688 120.042969 223.269531 92.378906 189.144531 92.378906 C 155.019531 92.378906 127.355469 120.042969 127.355469 154.167969 C 127.355469 164.195312 129.75 173.667969 133.988281 182.042969 L 124.066406 219.074219 L 160.992188 209.179688 C 169.433594 213.511719 179.003906 215.953125 189.144531 215.953125 C 206.492188 215.953125 222.171875 208.804688 233.394531 197.289062 L 208.585938 190.640625 " fill-opacity="1" fill-rule="nonzero"/></g><path fill="#609966" d="M 175.855469 152.84375 C 175.855469 157.703125 171.917969 161.640625 167.0625 161.640625 C 162.207031 161.640625 158.269531 157.703125 158.269531 152.84375 C 158.269531 147.988281 162.207031 144.050781 167.0625 144.050781 C 171.917969 144.050781 175.855469 147.988281 175.855469 152.84375 " fill-opacity="1" fill-rule="nonzero"/><path fill="#609966" d="M 197.835938 152.84375 C 197.835938 157.703125 193.898438 161.640625 189.042969 161.640625 C 184.1875 161.640625 180.25 157.703125 180.25 152.84375 C 180.25 147.988281 184.1875 144.050781 189.042969 144.050781 C 193.898438 144.050781 197.835938 147.988281 197.835938 152.84375 " fill-opacity="1" fill-rule="nonzero"/><path fill="#609966" d="M 219.816406 152.84375 C 219.816406 157.703125 215.878906 161.640625 211.023438 161.640625 C 206.167969 161.640625 202.230469 157.703125 202.230469 152.84375 C 202.230469 147.988281 206.167969 144.050781 211.023438 144.050781 C 215.878906 144.050781 219.816406 147.988281 219.816406 152.84375 " fill-opacity="1" fill-rule="nonzero"/></svg>